<svg width="650" height="345" viewBox="0 0 650 345" fill="none" xmlns="http://www.w3.org/2000/svg">
<rect width="650" height="345" fill="#000321"/>
<path d="M87.0131 68C86.4265 68 85.9331 67.8 85.5331 67.4C85.1331 67 84.9331 66.5067 84.9331 65.92V38.84C84.9331 38.2267 85.1331 37.7333 85.5331 37.36C85.9331 36.96 86.4265 36.76 87.0131 36.76H105.093C105.706 36.76 106.2 36.9467 106.573 37.32C106.946 37.6667 107.133 38.1333 107.133 38.72C107.133 39.28 106.946 39.7333 106.573 40.08C106.2 40.4267 105.706 40.6 105.093 40.6H89.0931V50.32H100.573C101.186 50.32 101.68 50.5067 102.053 50.88C102.426 51.2267 102.613 51.68 102.613 52.24C102.613 52.8 102.426 53.2667 102.053 53.64C101.68 53.9867 101.186 54.16 100.573 54.16H89.0931V65.92C89.0931 66.5067 88.8931 67 88.4931 67.4C88.0931 67.8 87.5998 68 87.0131 68ZM125.253 68.2C123.413 68.2 121.76 67.8133 120.293 67.04C118.853 66.24 117.706 65.08 116.853 63.56C116.026 62.04 115.613 60.1733 115.613 57.96V48.12C115.613 47.5333 115.8 47.0533 116.173 46.68C116.573 46.28 117.066 46.08 117.653 46.08C118.24 46.08 118.72 46.28 119.093 46.68C119.493 47.0533 119.693 47.5333 119.693 48.12V57.96C119.693 59.4533 119.973 60.6933 120.533 61.68C121.093 62.64 121.853 63.36 122.813 63.84C123.773 64.2933 124.853 64.52 126.053 64.52C127.2 64.52 128.213 64.2933 129.093 63.84C130 63.3867 130.72 62.7733 131.253 62C131.786 61.2267 132.053 60.36 132.053 59.4H134.573C134.573 61.0533 134.16 62.5467 133.333 63.88C132.533 65.2133 131.426 66.2667 130.013 67.04C128.626 67.8133 127.04 68.2 125.253 68.2ZM134.093 68C133.506 68 133.013 67.8133 132.613 67.44C132.24 67.04 132.053 66.5467 132.053 65.96V48.12C132.053 47.5067 132.24 47.0133 132.613 46.64C133.013 46.2667 133.506 46.08 134.093 46.08C134.706 46.08 135.2 46.2667 135.573 46.64C135.946 47.0133 136.133 47.5067 136.133 48.12V65.96C136.133 66.5467 135.946 67.04 135.573 67.44C135.2 67.8133 134.706 68 134.093 68ZM152.519 68C151.345 68 150.305 67.68 149.399 67.04C148.492 66.4 147.785 65.5333 147.279 64.44C146.772 63.32 146.519 62.04 146.519 60.6V38.76C146.519 38.1733 146.705 37.6933 147.079 37.32C147.452 36.9467 147.932 36.76 148.519 36.76C149.105 36.76 149.585 36.9467 149.959 37.32C150.332 37.6933 150.519 38.1733 150.519 38.76V60.6C150.519 61.5867 150.705 62.4 151.079 63.04C151.452 63.68 151.932 64 152.519 64H153.519C154.052 64 154.479 64.1867 154.799 64.56C155.145 64.9333 155.319 65.4133 155.319 66C155.319 66.5867 155.065 67.0667 154.559 67.44C154.052 67.8133 153.399 68 152.599 68H152.519ZM168.511 68C167.338 68 166.298 67.68 165.391 67.04C164.484 66.4 163.778 65.5333 163.271 64.44C162.764 63.32 162.511 62.04 162.511 60.6V38.76C162.511 38.1733 162.698 37.6933 163.071 37.32C163.444 36.9467 163.924 36.76 164.511 36.76C165.098 36.76 165.578 36.9467 165.951 37.32C166.324 37.6933 166.511 38.1733 166.511 38.76V60.6C166.511 61.5867 166.698 62.4 167.071 63.04C167.444 63.68 167.924 64 168.511 64H169.511C170.044 64 170.471 64.1867 170.791 64.56C171.138 64.9333 171.311 65.4133 171.311 66C171.311 66.5867 171.058 67.0667 170.551 67.44C170.044 67.8133 169.391 68 168.591 68H168.511ZM187.263 68.16C185.396 68.16 183.663 67.88 182.063 67.32C180.49 66.7333 179.263 66 178.383 65.12C177.983 64.6933 177.81 64.2133 177.863 63.68C177.943 63.12 178.21 62.6667 178.663 62.32C179.196 61.8933 179.716 61.72 180.223 61.8C180.756 61.8533 181.21 62.08 181.583 62.48C182.036 62.9867 182.756 63.4667 183.743 63.92C184.756 64.3467 185.876 64.56 187.103 64.56C188.65 64.56 189.823 64.3067 190.623 63.8C191.45 63.2933 191.876 62.64 191.903 61.84C191.93 61.04 191.543 60.3467 190.743 59.76C189.97 59.1733 188.543 58.6933 186.463 58.32C183.77 57.7867 181.81 56.9867 180.583 55.92C179.383 54.8533 178.783 53.5467 178.783 52C178.783 50.64 179.183 49.52 179.983 48.64C180.783 47.7333 181.81 47.0667 183.063 46.64C184.316 46.1867 185.623 45.96 186.983 45.96C188.743 45.96 190.303 46.24 191.663 46.8C193.023 47.36 194.103 48.1333 194.903 49.12C195.276 49.5467 195.45 50 195.423 50.48C195.396 50.9333 195.17 51.32 194.743 51.64C194.316 51.9333 193.81 52.0267 193.223 51.92C192.636 51.8133 192.143 51.5733 191.743 51.2C191.076 50.56 190.356 50.12 189.583 49.88C188.81 49.64 187.916 49.52 186.903 49.52C185.73 49.52 184.73 49.72 183.903 50.12C183.103 50.52 182.703 51.1067 182.703 51.88C182.703 52.36 182.823 52.8 183.063 53.2C183.33 53.5733 183.836 53.92 184.583 54.24C185.33 54.5333 186.423 54.8267 187.863 55.12C189.863 55.52 191.436 56.0267 192.583 56.64C193.756 57.2533 194.596 57.9733 195.103 58.8C195.61 59.6 195.863 60.5333 195.863 61.6C195.863 62.8267 195.53 63.9333 194.863 64.92C194.223 65.9067 193.263 66.6933 191.983 67.28C190.73 67.8667 189.156 68.16 187.263 68.16ZM212.982 68C211.649 68 210.449 67.6667 209.382 67C208.315 66.3067 207.475 65.3733 206.862 64.2C206.249 63.0267 205.942 61.7067 205.942 60.24V41.16C205.942 40.5733 206.129 40.0933 206.502 39.72C206.875 39.3467 207.355 39.16 207.942 39.16C208.529 39.16 209.009 39.3467 209.382 39.72C209.755 40.0933 209.942 40.5733 209.942 41.16V60.24C209.942 61.3067 210.235 62.2 210.822 62.92C211.409 63.64 212.129 64 212.982 64H214.342C214.822 64 215.222 64.1867 215.542 64.56C215.889 64.9333 216.062 65.4133 216.062 66C216.062 66.5867 215.835 67.0667 215.382 67.44C214.955 67.8133 214.395 68 213.702 68H212.982ZM204.102 50.36C203.542 50.36 203.089 50.2 202.742 49.88C202.395 49.56 202.222 49.16 202.222 48.68C202.222 48.1467 202.395 47.72 202.742 47.4C203.089 47.08 203.542 46.92 204.102 46.92H213.342C213.902 46.92 214.355 47.08 214.702 47.4C215.049 47.72 215.222 48.1467 215.222 48.68C215.222 49.16 215.049 49.56 214.702 49.88C214.355 50.2 213.902 50.36 213.342 50.36H204.102ZM234.197 68.16C232.25 68.16 230.503 67.68 228.957 66.72C227.41 65.7333 226.183 64.4133 225.277 62.76C224.397 61.08 223.957 59.1867 223.957 57.08C223.957 54.9733 224.437 53.08 225.397 51.4C226.383 49.72 227.703 48.4 229.357 47.44C231.037 46.4533 232.917 45.96 234.997 45.96C237.077 45.96 238.943 46.4533 240.597 47.44C242.25 48.4 243.557 49.72 244.517 51.4C245.503 53.08 245.997 54.9733 245.997 57.08H244.437C244.437 59.1867 243.983 61.08 243.077 62.76C242.197 64.4133 240.983 65.7333 239.437 66.72C237.89 67.68 236.143 68.16 234.197 68.16ZM234.997 64.56C236.357 64.56 237.57 64.24 238.637 63.6C239.703 62.9333 240.543 62.04 241.157 60.92C241.77 59.7733 242.077 58.4933 242.077 57.08C242.077 55.64 241.77 54.36 241.157 53.24C240.543 52.0933 239.703 51.2 238.637 50.56C237.57 49.8933 236.357 49.56 234.997 49.56C233.663 49.56 232.45 49.8933 231.357 50.56C230.29 51.2 229.437 52.0933 228.797 53.24C228.183 54.36 227.877 55.64 227.877 57.08C227.877 58.4933 228.183 59.7733 228.797 60.92C229.437 62.04 230.29 62.9333 231.357 63.6C232.45 64.24 233.663 64.56 234.997 64.56ZM243.957 68.04C243.37 68.04 242.877 67.8533 242.477 67.48C242.103 67.08 241.917 66.5867 241.917 66V59.88L242.677 55.64L245.997 57.08V66C245.997 66.5867 245.797 67.08 245.397 67.48C245.023 67.8533 244.543 68.04 243.957 68.04ZM265.989 68.16C263.855 68.16 261.949 67.68 260.269 66.72C258.615 65.7333 257.309 64.4133 256.349 62.76C255.415 61.08 254.949 59.1867 254.949 57.08C254.949 54.92 255.415 53 256.349 51.32C257.282 49.64 258.562 48.3333 260.189 47.4C261.815 46.44 263.682 45.96 265.789 45.96C267.362 45.96 268.802 46.2667 270.109 46.88C271.415 47.4667 272.589 48.36 273.629 49.56C274.002 49.9867 274.135 50.4267 274.029 50.88C273.922 51.3333 273.629 51.7333 273.149 52.08C272.775 52.3467 272.362 52.44 271.909 52.36C271.455 52.2533 271.042 52.0133 270.669 51.64C269.362 50.2533 267.735 49.56 265.789 49.56C264.429 49.56 263.229 49.88 262.189 50.52C261.149 51.1333 260.335 52 259.749 53.12C259.162 54.24 258.869 55.56 258.869 57.08C258.869 58.52 259.162 59.8 259.749 60.92C260.362 62.04 261.202 62.9333 262.269 63.6C263.335 64.24 264.575 64.56 265.989 64.56C266.922 64.56 267.735 64.4533 268.429 64.24C269.149 64 269.802 63.64 270.389 63.16C270.815 62.8133 271.255 62.6267 271.709 62.6C272.162 62.5467 272.562 62.6667 272.909 62.96C273.362 63.3333 273.615 63.76 273.669 64.24C273.722 64.6933 273.562 65.1067 273.189 65.48C271.269 67.2667 268.869 68.16 265.989 68.16ZM287.932 60L285.452 57.28L297.732 46.32C298.132 45.9467 298.572 45.7733 299.052 45.8C299.559 45.8267 299.986 46.04 300.332 46.44C300.706 46.84 300.879 47.28 300.852 47.76C300.826 48.24 300.612 48.6667 300.212 49.04L287.932 60ZM286.052 68C285.466 68 284.986 67.8267 284.612 67.48C284.266 67.1067 284.092 66.6267 284.092 66.04V38.72C284.092 38.1333 284.266 37.6667 284.612 37.32C284.986 36.9467 285.466 36.76 286.052 36.76C286.639 36.76 287.106 36.9467 287.452 37.32C287.826 37.6667 288.012 38.1333 288.012 38.72V66.04C288.012 66.6267 287.826 67.1067 287.452 67.48C287.106 67.8267 286.639 68 286.052 68ZM300.332 67.8C299.906 68.1467 299.426 68.2933 298.892 68.24C298.386 68.2133 297.959 67.9867 297.612 67.56L289.492 57.52L292.292 54.88L300.612 65.12C300.959 65.5467 301.106 66.0133 301.052 66.52C301.026 67 300.786 67.4267 300.332 67.8ZM329.064 68C328.478 68 327.984 67.8 327.584 67.4C327.184 67 326.984 66.5067 326.984 65.92V38.84C326.984 38.2267 327.184 37.7333 327.584 37.36C327.984 36.96 328.478 36.76 329.064 36.76H336.304C338.598 36.76 340.678 37.1467 342.544 37.92C344.438 38.6667 346.078 39.7467 347.464 41.16C348.851 42.5467 349.918 44.1867 350.664 46.08C351.411 47.9733 351.784 50.0667 351.784 52.36C351.784 54.6533 351.411 56.76 350.664 58.68C349.918 60.5733 348.851 62.2267 347.464 63.64C346.078 65.0267 344.438 66.1067 342.544 66.88C340.678 67.6267 338.598 68 336.304 68H329.064ZM331.144 64.32H336.304C338.544 64.32 340.518 63.8133 342.224 62.8C343.958 61.76 345.318 60.3467 346.304 58.56C347.291 56.7467 347.784 54.68 347.784 52.36C347.784 50.0133 347.291 47.9467 346.304 46.16C345.318 44.3733 343.958 42.9733 342.224 41.96C340.518 40.9467 338.544 40.44 336.304 40.44H331.144V64.32ZM372.193 68.16C369.979 68.16 368.006 67.6933 366.273 66.76C364.566 65.8 363.219 64.4933 362.233 62.84C361.273 61.16 360.793 59.24 360.793 57.08C360.793 54.8933 361.246 52.9733 362.153 51.32C363.086 49.64 364.366 48.3333 365.993 47.4C367.619 46.44 369.486 45.96 371.593 45.96C373.673 45.96 375.459 46.4267 376.953 47.36C378.446 48.2667 379.579 49.5333 380.352 51.16C381.153 52.76 381.553 54.6133 381.553 56.72C381.553 57.2267 381.379 57.6533 381.033 58C380.686 58.32 380.246 58.48 379.713 58.48H363.592V55.28H379.593L377.953 56.4C377.926 55.0667 377.659 53.88 377.153 52.84C376.646 51.7733 375.926 50.9333 374.993 50.32C374.059 49.7067 372.926 49.4 371.593 49.4C370.073 49.4 368.766 49.7333 367.673 50.4C366.606 51.0667 365.793 51.9867 365.233 53.16C364.673 54.3067 364.393 55.6133 364.393 57.08C364.393 58.5467 364.726 59.8533 365.393 61C366.059 62.1467 366.979 63.0533 368.153 63.72C369.326 64.3867 370.673 64.72 372.193 64.72C373.019 64.72 373.859 64.5733 374.713 64.28C375.593 63.96 376.299 63.6 376.833 63.2C377.233 62.9067 377.659 62.76 378.113 62.76C378.593 62.7333 379.006 62.8667 379.353 63.16C379.806 63.56 380.046 64 380.073 64.48C380.099 64.96 379.886 65.3733 379.432 65.72C378.526 66.44 377.393 67.0267 376.033 67.48C374.699 67.9333 373.419 68.16 372.193 68.16ZM397.375 67.96C396.548 67.96 395.908 67.52 395.455 66.64L386.975 48.76C386.762 48.3067 386.735 47.8667 386.895 47.44C387.082 46.9867 387.428 46.64 387.935 46.4C388.388 46.16 388.842 46.12 389.295 46.28C389.775 46.44 390.135 46.7467 390.375 47.2L398.295 64.28H396.375L404.215 47.2C404.455 46.7467 404.815 46.44 405.295 46.28C405.802 46.12 406.308 46.16 406.815 46.4C407.295 46.6133 407.615 46.9467 407.775 47.4C407.935 47.8533 407.908 48.3067 407.695 48.76L399.215 66.64C398.815 67.52 398.202 67.96 397.375 67.96ZM425.388 68.16C423.174 68.16 421.201 67.6933 419.468 66.76C417.761 65.8 416.414 64.4933 415.428 62.84C414.468 61.16 413.988 59.24 413.988 57.08C413.988 54.8933 414.441 52.9733 415.348 51.32C416.281 49.64 417.561 48.3333 419.188 47.4C420.814 46.44 422.681 45.96 424.788 45.96C426.868 45.96 428.654 46.4267 430.148 47.36C431.641 48.2667 432.774 49.5333 433.548 51.16C434.348 52.76 434.748 54.6133 434.748 56.72C434.748 57.2267 434.574 57.6533 434.228 58C433.881 58.32 433.441 58.48 432.908 58.48H416.788V55.28H432.788L431.148 56.4C431.121 55.0667 430.854 53.88 430.348 52.84C429.841 51.7733 429.121 50.9333 428.188 50.32C427.254 49.7067 426.121 49.4 424.788 49.4C423.268 49.4 421.961 49.7333 420.868 50.4C419.801 51.0667 418.988 51.9867 418.428 53.16C417.868 54.3067 417.588 55.6133 417.588 57.08C417.588 58.5467 417.921 59.8533 418.588 61C419.254 62.1467 420.174 63.0533 421.348 63.72C422.521 64.3867 423.868 64.72 425.388 64.72C426.214 64.72 427.054 64.5733 427.908 64.28C428.788 63.96 429.494 63.6 430.028 63.2C430.428 62.9067 430.854 62.76 431.308 62.76C431.788 62.7333 432.201 62.8667 432.548 63.16C433.001 63.56 433.241 64 433.268 64.48C433.294 64.96 433.081 65.3733 432.628 65.72C431.721 66.44 430.588 67.0267 429.228 67.48C427.894 67.9333 426.614 68.16 425.388 68.16ZM449.152 68C447.978 68 446.938 67.68 446.032 67.04C445.125 66.4 444.418 65.5333 443.912 64.44C443.405 63.32 443.152 62.04 443.152 60.6V38.76C443.152 38.1733 443.338 37.6933 443.712 37.32C444.085 36.9467 444.565 36.76 445.152 36.76C445.738 36.76 446.218 36.9467 446.592 37.32C446.965 37.6933 447.152 38.1733 447.152 38.76V60.6C447.152 61.5867 447.338 62.4 447.712 63.04C448.085 63.68 448.565 64 449.152 64H450.152C450.685 64 451.112 64.1867 451.432 64.56C451.778 64.9333 451.952 65.4133 451.952 66C451.952 66.5867 451.698 67.0667 451.192 67.44C450.685 67.8133 450.032 68 449.232 68H449.152ZM468.653 68.16C466.493 68.16 464.586 67.6933 462.933 66.76C461.279 65.8 459.973 64.4933 459.013 62.84C458.079 61.16 457.613 59.24 457.613 57.08C457.613 54.8933 458.079 52.9733 459.013 51.32C459.973 49.64 461.279 48.3333 462.933 47.4C464.586 46.44 466.493 45.96 468.653 45.96C470.786 45.96 472.679 46.44 474.333 47.4C475.986 48.3333 477.279 49.64 478.213 51.32C479.173 52.9733 479.653 54.8933 479.653 57.08C479.653 59.24 479.186 61.16 478.253 62.84C477.319 64.4933 476.026 65.8 474.373 66.76C472.719 67.6933 470.813 68.16 468.653 68.16ZM468.653 64.56C470.039 64.56 471.266 64.24 472.333 63.6C473.399 62.96 474.226 62.08 474.813 60.96C475.426 59.84 475.733 58.5467 475.733 57.08C475.733 55.6133 475.426 54.32 474.813 53.2C474.226 52.0533 473.399 51.16 472.333 50.52C471.266 49.88 470.039 49.56 468.653 49.56C467.266 49.56 466.039 49.88 464.973 50.52C463.906 51.16 463.066 52.0533 462.453 53.2C461.839 54.32 461.533 55.6133 461.533 57.08C461.533 58.5467 461.839 59.84 462.453 60.96C463.066 62.08 463.906 62.96 464.973 63.6C466.039 64.24 467.266 64.56 468.653 64.56ZM491.765 77.36C491.178 77.36 490.685 77.16 490.285 76.76C489.912 76.3867 489.725 75.9067 489.725 75.32V57.08C489.752 54.9733 490.245 53.08 491.205 51.4C492.165 49.72 493.472 48.4 495.125 47.44C496.778 46.4533 498.645 45.96 500.725 45.96C502.832 45.96 504.712 46.4533 506.365 47.44C508.018 48.4 509.325 49.72 510.285 51.4C511.272 53.08 511.765 54.9733 511.765 57.08C511.765 59.1867 511.312 61.08 510.405 62.76C509.525 64.4133 508.312 65.7333 506.765 66.72C505.218 67.68 503.472 68.16 501.525 68.16C499.952 68.16 498.498 67.84 497.165 67.2C495.858 66.5333 494.738 65.64 493.805 64.52V75.32C493.805 75.9067 493.618 76.3867 493.245 76.76C492.872 77.16 492.378 77.36 491.765 77.36ZM500.725 64.56C502.085 64.56 503.298 64.24 504.365 63.6C505.432 62.9333 506.272 62.04 506.885 60.92C507.525 59.7733 507.845 58.4933 507.845 57.08C507.845 55.64 507.525 54.36 506.885 53.24C506.272 52.0933 505.432 51.2 504.365 50.56C503.298 49.8933 502.085 49.56 500.725 49.56C499.392 49.56 498.178 49.8933 497.085 50.56C496.018 51.2 495.178 52.0933 494.565 53.24C493.952 54.36 493.645 55.64 493.645 57.08C493.645 58.4933 493.952 59.7733 494.565 60.92C495.178 62.04 496.018 62.9333 497.085 63.6C498.178 64.24 499.392 64.56 500.725 64.56ZM532.13 68.16C529.917 68.16 527.943 67.6933 526.21 66.76C524.503 65.8 523.157 64.4933 522.17 62.84C521.21 61.16 520.73 59.24 520.73 57.08C520.73 54.8933 521.183 52.9733 522.09 51.32C523.023 49.64 524.303 48.3333 525.93 47.4C527.557 46.44 529.423 45.96 531.53 45.96C533.61 45.96 535.397 46.4267 536.89 47.36C538.383 48.2667 539.517 49.5333 540.29 51.16C541.09 52.76 541.49 54.6133 541.49 56.72C541.49 57.2267 541.317 57.6533 540.97 58C540.623 58.32 540.183 58.48 539.65 58.48H523.53V55.28H539.53L537.89 56.4C537.863 55.0667 537.597 53.88 537.09 52.84C536.583 51.7733 535.863 50.9333 534.93 50.32C533.997 49.7067 532.863 49.4 531.53 49.4C530.01 49.4 528.703 49.7333 527.61 50.4C526.543 51.0667 525.73 51.9867 525.17 53.16C524.61 54.3067 524.33 55.6133 524.33 57.08C524.33 58.5467 524.663 59.8533 525.33 61C525.997 62.1467 526.917 63.0533 528.09 63.72C529.263 64.3867 530.61 64.72 532.13 64.72C532.957 64.72 533.797 64.5733 534.65 64.28C535.53 63.96 536.237 63.6 536.77 63.2C537.17 62.9067 537.597 62.76 538.05 62.76C538.53 62.7333 538.943 62.8667 539.29 63.16C539.743 63.56 539.983 64 540.01 64.48C540.037 64.96 539.823 65.3733 539.37 65.72C538.463 66.44 537.33 67.0267 535.97 67.48C534.637 67.9333 533.357 68.16 532.13 68.16ZM552.654 54.32C552.654 52.72 553.04 51.2933 553.814 50.04C554.614 48.76 555.68 47.7467 557.014 47C558.347 46.2533 559.814 45.88 561.414 45.88C563.014 45.88 564.2 46.1467 564.974 46.68C565.774 47.1867 566.08 47.8 565.894 48.52C565.814 48.8933 565.654 49.1867 565.414 49.4C565.2 49.5867 564.947 49.7067 564.654 49.76C564.36 49.8133 564.04 49.8 563.694 49.72C561.987 49.3733 560.454 49.3467 559.094 49.64C557.734 49.9333 556.654 50.48 555.854 51.28C555.08 52.08 554.694 53.0933 554.694 54.32H552.654ZM552.694 68C552.054 68 551.56 67.84 551.214 67.52C550.867 67.1733 550.694 66.6667 550.694 66V48.12C550.694 47.48 550.867 46.9867 551.214 46.64C551.56 46.2933 552.054 46.12 552.694 46.12C553.36 46.12 553.854 46.2933 554.174 46.64C554.52 46.96 554.694 47.4533 554.694 48.12V66C554.694 66.64 554.52 67.1333 554.174 67.48C553.854 67.8267 553.36 68 552.694 68Z" fill="#6CD3FF"/>
<g clip-path="url(#clip0_24_48)">
<path d="M320.658 225.762C322.131 224.914 324.05 224.91 325.523 225.762C332.929 229.969 340.338 234.17 347.743 238.379C349.136 239.168 350.068 240.726 350.054 242.34V267.652C350.064 269.332 349.04 270.928 347.571 271.699C340.189 275.883 332.81 280.072 325.429 284.256C323.925 285.12 321.968 285.054 320.511 284.119C318.297 282.829 316.08 281.545 313.867 280.257C313.415 279.986 312.905 279.77 312.585 279.329C312.868 278.947 313.373 278.899 313.783 278.732C314.707 278.437 315.555 277.963 316.404 277.503C316.618 277.355 316.88 277.412 317.086 277.544C318.979 278.634 320.855 279.757 322.753 280.837C323.159 281.073 323.569 280.76 323.915 280.566C331.159 276.45 338.412 272.35 345.655 268.233C345.924 268.103 346.072 267.817 346.05 267.521C346.055 259.171 346.052 250.82 346.053 242.47C346.084 242.134 345.891 241.826 345.589 241.689C338.232 237.524 330.879 233.353 323.524 229.187C323.397 229.099 323.246 229.051 323.091 229.051C322.936 229.051 322.785 229.098 322.658 229.185C315.302 233.353 307.951 237.528 300.595 241.692C300.295 241.83 300.093 242.133 300.129 242.47C300.13 250.82 300.129 259.171 300.129 267.522C300.116 267.667 300.148 267.811 300.219 267.937C300.291 268.063 300.399 268.163 300.529 268.225C302.492 269.344 304.457 270.455 306.421 271.57C307.528 272.169 308.886 272.525 310.105 272.066C311.181 271.678 311.935 270.574 311.915 269.426C311.925 261.125 311.909 252.822 311.922 244.522C311.895 244.154 312.243 243.849 312.599 243.884C313.543 243.878 314.487 243.871 315.43 243.887C315.824 243.878 316.095 244.274 316.046 244.646C316.042 253 316.056 261.354 316.04 269.707C316.042 271.934 315.132 274.356 313.084 275.446C310.56 276.76 307.441 276.481 304.948 275.221C302.789 274.138 300.729 272.86 298.609 271.7C297.136 270.933 296.117 269.331 296.128 267.652V242.34C296.112 240.693 297.081 239.106 298.517 238.329C305.898 234.142 313.278 229.951 320.658 225.762Z" fill="#8CC84B"/>
<path d="M327.097 243.296C330.316 243.087 333.762 243.172 336.659 244.767C338.902 245.988 340.145 248.552 340.185 251.057C340.122 251.395 339.771 251.582 339.45 251.558C338.516 251.557 337.582 251.571 336.648 251.552C336.252 251.567 336.021 251.2 335.972 250.848C335.703 249.649 335.053 248.462 333.931 247.884C332.208 247.017 330.211 247.061 328.333 247.079C326.961 247.152 325.487 247.272 324.325 248.082C323.433 248.696 323.162 249.936 323.481 250.934C323.781 251.651 324.604 251.882 325.277 252.095C329.157 253.115 333.268 253.014 337.073 254.356C338.649 254.903 340.19 255.967 340.729 257.626C341.435 259.848 341.126 262.505 339.553 264.289C338.277 265.757 336.419 266.556 334.566 266.99C332.101 267.543 329.543 267.557 327.04 267.312C324.686 267.042 322.236 266.42 320.419 264.808C318.865 263.452 318.106 261.338 318.181 259.298C318.199 258.954 318.54 258.714 318.869 258.742C319.809 258.734 320.75 258.732 321.69 258.743C322.066 258.716 322.345 259.043 322.364 259.399C322.537 260.54 322.964 261.739 323.955 262.416C325.866 263.656 328.265 263.571 330.454 263.606C332.267 263.525 334.303 263.5 335.783 262.295C336.563 261.608 336.795 260.458 336.584 259.469C336.355 258.634 335.486 258.245 334.74 257.99C330.91 256.773 326.753 257.214 322.96 255.837C321.421 255.29 319.932 254.256 319.34 252.666C318.515 250.415 318.893 247.631 320.631 245.907C322.325 244.192 324.771 243.532 327.097 243.296V243.296Z" fill="#8CC84B"/>
</g>
<g clip-path="url(#clip1_24_48)">
<mask id="mask0_24_48" style="mask-type:alpha" maskUnits="userSpaceOnUse" x="388" y="245" width="60" height="60">
<path fill-rule="evenodd" clip-rule="evenodd" d="M430.547 304.59C431.492 304.958 432.57 304.935 433.524 304.476L445.876 298.532C447.175 297.907 448 296.594 448 295.152V254.848C448 253.407 447.175 252.093 445.877 251.468L433.524 245.524C432.272 244.922 430.807 245.069 429.708 245.868C429.551 245.982 429.402 246.11 429.261 246.25L405.613 267.825L395.312 260.006C394.353 259.278 393.012 259.338 392.122 260.148L388.818 263.153C387.728 264.144 387.727 265.858 388.815 266.85L397.748 275L388.815 283.15C387.727 284.142 387.728 285.856 388.818 286.847L392.122 289.852C393.012 290.663 394.353 290.722 395.312 289.994L405.613 282.175L429.261 303.75C429.635 304.124 430.075 304.406 430.547 304.59ZM433.009 261.379L415.065 275L433.009 288.621V261.379Z" fill="white"/>
</mask>
<g mask="url(#mask0_24_48)">
<path d="M445.877 251.48L433.514 245.527C432.083 244.838 430.373 245.129 429.25 246.252L388.779 283.152C387.691 284.144 387.692 285.858 388.782 286.849L392.088 289.854C392.979 290.664 394.321 290.724 395.28 289.996L444.017 253.024C445.652 251.783 448 252.95 448 255.002V254.858C448 253.418 447.175 252.105 445.877 251.48Z" fill="#0065A9"/>
<g filter="url(#filter0_d_24_48)">
<path d="M445.877 298.522L433.514 304.475C432.083 305.164 430.373 304.873 429.25 303.75L388.779 266.85C387.691 265.858 387.692 264.144 388.782 263.153L392.088 260.148C392.979 259.337 394.321 259.278 395.28 260.006L444.017 296.978C445.652 298.218 448 297.052 448 295V295.144C448 296.584 447.175 297.897 445.877 298.522Z" fill="#007ACC"/>
</g>
<g filter="url(#filter1_d_24_48)">
<path d="M433.515 304.476C432.083 305.164 430.373 304.873 429.25 303.75C430.634 305.134 433 304.154 433 302.197V247.803C433 245.846 430.634 244.866 429.25 246.25C430.373 245.127 432.083 244.836 433.515 245.524L445.875 251.468C447.174 252.093 448 253.407 448 254.848V295.152C448 296.593 447.174 297.907 445.875 298.532L433.515 304.476Z" fill="#1F9CF0"/>
</g>
<g style="mix-blend-mode:overlay" opacity="0.25">
<path fill-rule="evenodd" clip-rule="evenodd" d="M430.511 304.591C431.456 304.959 432.533 304.936 433.487 304.477L445.84 298.533C447.138 297.908 447.963 296.594 447.963 295.153V254.849C447.963 253.407 447.138 252.094 445.84 251.469L433.487 245.525C432.235 244.923 430.77 245.07 429.672 245.869C429.515 245.983 429.365 246.11 429.225 246.251L405.577 267.826L395.276 260.007C394.317 259.279 392.976 259.338 392.085 260.148L388.781 263.154C387.692 264.145 387.691 265.858 388.779 266.851L397.712 275.001L388.779 283.151C387.691 284.143 387.692 285.857 388.781 286.848L392.085 289.853C392.976 290.663 394.317 290.723 395.276 289.995L405.577 282.176L429.225 303.751C429.599 304.125 430.038 304.407 430.511 304.591ZM432.973 261.38L415.029 275.001L432.973 288.621V261.38Z" fill="url(#paint0_linear_24_48)"/>
</g>
</g>
</g>
<path d="M506.188 130H451.812C450.259 130 449 131.259 449 132.812V187.188C449 188.741 450.259 190 451.812 190H506.188C507.741 190 509 188.741 509 187.188V132.812C509 131.259 507.741 130 506.188 130Z" fill="#3178C6"/>
<path fill-rule="evenodd" clip-rule="evenodd" d="M483.81 176.626V183.2C484.876 183.748 486.135 184.159 487.59 184.433C489.044 184.707 490.577 184.844 492.188 184.844C493.759 184.844 495.251 184.693 496.664 184.392C498.078 184.09 499.317 183.594 500.382 182.902C501.447 182.21 502.29 181.307 502.912 180.19C503.533 179.074 503.844 177.694 503.844 176.05C503.844 174.859 503.666 173.814 503.311 172.917C502.956 172.02 502.444 171.222 501.775 170.524C501.106 169.825 500.303 169.198 499.368 168.644C498.433 168.089 497.378 167.565 496.203 167.072C495.343 166.716 494.571 166.37 493.889 166.034C493.206 165.699 492.625 165.356 492.147 165.007C491.669 164.658 491.301 164.288 491.041 163.898C490.782 163.507 490.652 163.066 490.652 162.573C490.652 162.121 490.768 161.713 491 161.35C491.232 160.987 491.56 160.676 491.984 160.415C492.407 160.155 492.926 159.953 493.54 159.809C494.155 159.665 494.838 159.594 495.589 159.594C496.135 159.594 496.712 159.635 497.32 159.717C497.927 159.799 498.538 159.926 499.153 160.097C499.767 160.268 500.365 160.484 500.945 160.744C501.526 161.004 502.062 161.306 502.553 161.648V155.505C501.556 155.121 500.467 154.837 499.286 154.652C498.105 154.467 496.75 154.375 495.22 154.375C493.663 154.375 492.188 154.543 490.795 154.878C489.403 155.214 488.177 155.738 487.119 156.45C486.06 157.162 485.224 158.07 484.609 159.172C483.995 160.275 483.688 161.593 483.688 163.127C483.688 165.086 484.251 166.757 485.377 168.14C486.504 169.524 488.214 170.695 490.509 171.654C491.41 172.023 492.25 172.386 493.028 172.743C493.807 173.099 494.479 173.468 495.046 173.852C495.613 174.236 496.06 174.653 496.387 175.105C496.715 175.557 496.879 176.071 496.879 176.646C496.879 177.071 496.777 177.465 496.572 177.827C496.367 178.19 496.056 178.505 495.64 178.772C495.223 179.04 494.704 179.249 494.083 179.399C493.462 179.55 492.735 179.625 491.902 179.625C490.481 179.625 489.075 179.375 487.682 178.875C486.289 178.375 484.998 177.625 483.81 176.626V176.626ZM472.767 160.26H481.344V154.844H457.438V160.26H465.972V184.375H472.767V160.26Z" fill="white"/>
<path d="M407 114H347V174H407V114Z" fill="#F7DF1E"/>
<path d="M387.305 160.875C388.513 162.849 390.086 164.299 392.867 164.299C395.203 164.299 396.695 163.131 396.695 161.518C396.695 159.585 395.162 158.9 392.59 157.775L391.181 157.17C387.112 155.437 384.41 153.266 384.41 148.675C384.41 144.447 387.631 141.228 392.667 141.228C396.251 141.228 398.829 142.475 400.686 145.742L396.295 148.561C395.329 146.828 394.286 146.145 392.667 146.145C391.015 146.145 389.969 147.192 389.969 148.561C389.969 150.252 391.016 150.937 393.435 151.985L394.845 152.589C399.635 154.643 402.34 156.737 402.34 161.446C402.34 166.522 398.352 169.303 392.997 169.303C387.761 169.303 384.378 166.808 382.723 163.537L387.305 160.875ZM367.388 161.364C368.273 162.935 369.079 164.264 371.016 164.264C372.869 164.264 374.037 163.539 374.037 160.721V141.55H379.675V160.797C379.675 166.635 376.252 169.292 371.256 169.292C366.742 169.292 364.128 166.956 362.798 164.142L367.388 161.364Z" fill="black"/>
<path d="M247.362 184.002L242.547 130H295.452L290.633 183.994L268.968 190L247.362 184.002Z" fill="#264DE4"/>
<path d="M286.506 180.556L290.625 134.415H269V185.409L286.506 180.556Z" fill="#2965F1"/>
<path d="M253.585 154.444L254.179 161.067H269V154.444H253.585ZM252.994 147.662H269V141.039H252.392L252.994 147.662ZM269 171.645L268.971 171.653L261.595 169.661L261.123 164.379H254.475L255.403 174.778L268.97 178.545L269 178.536V171.645Z" fill="#EBEBEB"/>
<path d="M268.977 154.444V161.067H277.133L276.364 169.657L268.977 171.651V178.541L282.555 174.778L282.655 173.659L284.211 156.223L284.373 154.444L285.568 141.039H268.977V147.662H278.31L277.707 154.444H268.977Z" fill="white"/>
<path d="M144.32 167.906L139.516 114H192.367L187.562 167.906L165.883 174" fill="#E34F26"/>
<path d="M166 169.312L183.461 164.508L187.562 118.336H166" fill="#EF652A"/>
<path d="M166 138.375H157.211L156.625 131.578H166V125.016H165.883H149.359L149.477 126.773L151.117 145.055H166V138.375ZM166 155.602H165.883L158.5 153.609L158.031 148.336H154.516H151.469L152.289 158.766L165.883 162.516H166V155.602Z" fill="#EBEBEB"/>
<path d="M165.883 138.375V145.055H174.086L173.266 153.609L165.883 155.602V162.516L179.477 158.766L179.594 157.594L181.117 140.133L181.352 138.375H179.477H165.883ZM165.883 125.016V129.117V131.578H181.938L182.055 130.172L182.406 126.773L182.523 125.016H165.883Z" fill="white"/>
<g clip-path="url(#clip2_24_48)">
<path d="M119.703 236.117C116.93 238.067 113.788 240.277 112.105 243.934C109.18 250.313 118.089 257.271 118.469 257.564C118.558 257.632 118.664 257.666 118.769 257.666C118.881 257.666 118.994 257.628 119.085 257.552C119.262 257.404 119.312 257.152 119.206 256.948C119.173 256.886 115.976 250.675 116.095 246.219C116.137 244.667 118.309 242.907 120.608 241.043C122.714 239.336 125.101 237.401 126.497 235.137C129.564 230.155 126.156 225.256 126.121 225.207C125.986 225.017 125.736 224.948 125.522 225.041C125.309 225.136 125.19 225.366 125.239 225.595C125.246 225.627 125.909 228.867 124.065 232.205C123.305 233.584 121.636 234.758 119.703 236.117Z" fill="#DB380E"/>
<path d="M131.383 238.315C131.579 238.167 131.636 237.899 131.518 237.684C131.4 237.47 131.142 237.375 130.913 237.462C130.442 237.641 119.38 241.905 119.38 247.057C119.38 250.609 120.897 252.485 122.005 253.855C122.439 254.393 122.814 254.857 122.938 255.253C123.286 256.395 122.461 258.458 122.115 259.157C122.015 259.358 122.064 259.602 122.234 259.748C122.326 259.828 122.44 259.868 122.555 259.868C122.653 259.868 122.751 259.839 122.836 259.78C123.026 259.648 127.484 256.496 126.685 252.698C126.387 251.254 125.678 250.2 125.052 249.269C124.082 247.827 123.382 246.785 124.444 244.862C125.689 242.618 131.326 238.357 131.383 238.315Z" fill="#DB380E"/>
<path d="M102.588 259.95C102.399 260.517 102.488 261.081 102.847 261.579C104.046 263.244 108.294 264.161 114.808 264.161C114.808 264.161 114.808 264.161 114.809 264.161C115.691 264.161 116.623 264.143 117.578 264.109C127.993 263.736 131.856 260.491 132.015 260.354C132.189 260.203 132.235 259.953 132.127 259.75C132.019 259.548 131.786 259.446 131.564 259.508C127.896 260.509 121.047 260.865 116.296 260.865C110.98 260.865 108.272 260.482 107.61 260.199C107.95 259.732 110.047 258.898 112.647 258.387C112.895 258.338 113.066 258.108 113.041 257.856C113.017 257.605 112.805 257.412 112.552 257.412C111.028 257.412 103.387 257.535 102.588 259.95Z" fill="#73A1FB"/>
<path d="M137.439 256.608C135.291 256.608 133.254 257.684 133.168 257.73C132.969 257.836 132.869 258.064 132.923 258.283C132.978 258.502 133.174 258.655 133.4 258.656C133.445 258.656 137.982 258.693 138.393 261.285C138.757 263.521 134.1 267.144 132.275 268.352C132.078 268.482 132.002 268.734 132.093 268.952C132.171 269.138 132.352 269.254 132.547 269.254C132.581 269.254 132.615 269.25 132.649 269.243C133.082 269.15 143.244 266.911 142.169 260.995C141.514 257.369 139.235 256.608 137.439 256.608Z" fill="#73A1FB"/>
<path d="M130.471 267.628C130.506 267.438 130.427 267.245 130.269 267.135L127.833 265.428C127.714 265.345 127.564 265.319 127.424 265.356C127.399 265.362 124.851 266.032 121.152 266.443C119.684 266.607 118.039 266.694 116.396 266.694C112.698 266.694 110.28 266.26 109.928 265.941C109.881 265.852 109.896 265.811 109.904 265.788C109.968 265.61 110.311 265.399 110.532 265.315C110.776 265.225 110.908 264.96 110.832 264.711C110.756 264.462 110.5 264.315 110.246 264.376C107.802 264.966 106.607 265.79 106.694 266.827C106.848 268.665 111.106 269.609 114.705 269.858C115.223 269.894 115.783 269.912 116.369 269.912C116.369 269.912 116.37 269.912 116.37 269.912C122.355 269.912 130.028 268.034 130.105 268.015C130.292 267.969 130.435 267.818 130.471 267.628Z" fill="#73A1FB"/>
<path d="M112.102 271.573C112.287 271.453 112.368 271.225 112.303 271.014C112.238 270.804 112.041 270.666 111.82 270.669C111.493 270.678 108.615 270.808 108.414 272.64C108.353 273.187 108.51 273.688 108.88 274.126C109.913 275.351 112.702 276.079 117.404 276.351C117.961 276.384 118.526 276.401 119.084 276.401C125.063 276.401 129.089 274.529 129.258 274.45C129.421 274.372 129.529 274.212 129.538 274.031C129.548 273.851 129.458 273.68 129.304 273.585L126.225 271.706C126.118 271.64 125.99 271.619 125.868 271.644C125.849 271.648 123.894 272.053 120.943 272.454C120.385 272.53 119.686 272.568 118.865 272.568C115.918 272.568 112.64 272.087 112.011 271.772C112.002 271.713 112.014 271.638 112.102 271.573Z" fill="#73A1FB"/>
<path d="M116.298 282.053C129.992 282.041 137.342 279.606 138.757 278.074C139.259 277.531 139.313 277.018 139.27 276.683C139.165 275.858 138.413 275.353 138.328 275.298C138.123 275.166 137.847 275.2 137.687 275.385C137.527 275.57 137.523 275.84 137.683 276.025C137.77 276.136 137.82 276.322 137.567 276.575C137.001 277.104 131.292 278.708 121.787 279.191C120.485 279.258 119.119 279.293 117.728 279.293C109.218 279.293 102.989 278.127 102.172 277.448C102.487 276.995 104.69 276.272 107.033 275.862C107.297 275.816 107.475 275.568 107.434 275.303C107.393 275.038 107.149 274.856 106.882 274.89C106.816 274.899 106.592 274.913 106.332 274.929C102.466 275.165 97.9992 275.691 97.7661 277.683C97.6953 278.289 97.8756 278.84 98.3023 279.32C99.3464 280.493 102.347 282.053 116.297 282.053C116.298 282.053 116.298 282.053 116.298 282.053Z" fill="#73A1FB"/>
<path d="M141.447 278.505C141.253 278.416 141.025 278.461 140.88 278.617C140.86 278.639 138.801 280.792 132.611 282.056C130.241 282.531 125.793 282.771 119.389 282.771C112.974 282.771 106.869 282.519 106.808 282.516C106.553 282.504 106.335 282.689 106.301 282.94C106.266 283.191 106.427 283.428 106.674 283.486C106.737 283.501 113.135 285 121.882 285C126.078 285 130.16 284.66 134.017 283.987C141.208 282.726 141.711 279.161 141.729 279.01C141.754 278.798 141.64 278.595 141.447 278.505Z" fill="#73A1FB"/>
</g>
<path d="M222.743 245.017C207.55 245.017 208.498 251.632 208.498 251.632L208.515 258.486H223.014V260.544H202.756C202.756 260.544 193.034 259.436 193.034 274.828C193.034 290.22 201.52 289.675 201.52 289.675H206.584V282.532C206.584 282.532 206.311 274.012 214.935 274.012H229.315C229.315 274.012 237.395 274.143 237.395 266.172V252.993C237.395 252.993 238.622 245.017 222.743 245.017ZM214.749 249.626C215.091 249.626 215.43 249.693 215.747 249.825C216.064 249.956 216.351 250.149 216.594 250.392C216.836 250.635 217.028 250.924 217.159 251.242C217.29 251.56 217.357 251.901 217.357 252.245C217.357 252.589 217.29 252.929 217.159 253.247C217.028 253.565 216.836 253.854 216.594 254.097C216.351 254.34 216.064 254.533 215.747 254.665C215.43 254.796 215.091 254.864 214.749 254.864C214.406 254.864 214.067 254.796 213.75 254.665C213.433 254.533 213.146 254.34 212.903 254.097C212.661 253.854 212.469 253.565 212.338 253.247C212.207 252.929 212.14 252.589 212.14 252.245C212.14 251.901 212.207 251.56 212.338 251.242C212.469 250.924 212.661 250.635 212.903 250.392C213.146 250.149 213.433 249.956 213.75 249.825C214.067 249.693 214.406 249.626 214.749 249.626V249.626Z" fill="url(#paint1_linear_24_48)"/>
<path d="M223.175 304.794C238.368 304.794 237.419 298.179 237.419 298.179L237.403 291.326H222.903V289.268H243.161C243.161 289.268 252.884 290.375 252.884 274.983C252.884 259.591 244.398 260.137 244.398 260.137H239.333V267.279C239.333 267.279 239.606 275.799 230.983 275.799H216.602C216.602 275.799 208.523 275.668 208.523 283.639V296.819C208.523 296.819 207.296 304.794 223.174 304.794H223.175ZM231.169 300.186C230.827 300.186 230.487 300.119 230.171 299.987C229.854 299.856 229.567 299.663 229.324 299.42C229.082 299.176 228.89 298.888 228.759 298.57C228.628 298.252 228.561 297.911 228.561 297.567C228.561 297.223 228.628 296.882 228.759 296.564C228.89 296.247 229.082 295.958 229.324 295.714C229.566 295.471 229.854 295.278 230.171 295.147C230.487 295.015 230.827 294.948 231.169 294.948C231.512 294.948 231.851 295.015 232.168 295.147C232.484 295.278 232.772 295.471 233.014 295.714C233.257 295.958 233.449 296.246 233.58 296.564C233.711 296.882 233.778 297.223 233.778 297.567C233.778 297.911 233.711 298.252 233.58 298.569C233.449 298.887 233.257 299.176 233.014 299.419C232.772 299.663 232.484 299.855 232.168 299.987C231.851 300.118 231.512 300.186 231.169 300.186V300.186Z" fill="url(#paint2_linear_24_48)"/>
<path fill-rule="evenodd" clip-rule="evenodd" d="M516 225C499.425 225 486 238.425 486 255C486 268.275 494.587 279.488 506.512 283.463C508.012 283.725 508.575 282.825 508.575 282.038C508.575 281.325 508.538 278.963 508.538 276.45C501 277.838 499.05 274.612 498.45 272.925C498.112 272.062 496.65 269.4 495.375 268.687C494.325 268.125 492.825 266.737 495.338 266.7C497.7 266.662 499.388 268.875 499.95 269.775C502.65 274.312 506.963 273.038 508.688 272.25C508.95 270.3 509.737 268.987 510.6 268.237C503.925 267.487 496.95 264.9 496.95 253.425C496.95 250.162 498.113 247.462 500.025 245.362C499.725 244.612 498.675 241.537 500.325 237.412C500.325 237.412 502.838 236.625 508.575 240.488C510.975 239.813 513.525 239.475 516.075 239.475C518.625 239.475 521.175 239.813 523.575 240.488C529.313 236.588 531.825 237.412 531.825 237.412C533.475 241.537 532.425 244.612 532.125 245.362C534.038 247.462 535.2 250.125 535.2 253.425C535.2 264.937 528.188 267.487 521.513 268.237C522.6 269.175 523.538 270.975 523.538 273.788C523.538 277.8 523.5 281.025 523.5 282.038C523.5 282.825 524.063 283.763 525.563 283.463C531.518 281.452 536.693 277.624 540.359 272.519C544.026 267.413 545.998 261.286 546 255C546 238.425 532.575 225 516 225Z" fill="#C4C4C4"/>
<defs>
<filter id="filter0_d_24_48" x="379.63" y="251.164" width="76.7031" height="62.0141" filterUnits="userSpaceOnUse" color-interpolation-filters="sRGB">
<feFlood flood-opacity="0" result="BackgroundImageFix"/>
<feColorMatrix in="SourceAlpha" type="matrix" values="0 0 0 0 0 0 0 0 0 0 0 0 0 0 0 0 0 0 127 0" result="hardAlpha"/>
<feOffset/>
<feGaussianBlur stdDeviation="4.16667"/>
<feColorMatrix type="matrix" values="0 0 0 0 0 0 0 0 0 0 0 0 0 0 0 0 0 0 0.25 0"/>
<feBlend mode="overlay" in2="BackgroundImageFix" result="effect1_dropShadow_24_48"/>
<feBlend mode="normal" in="SourceGraphic" in2="effect1_dropShadow_24_48" result="shape"/>
</filter>
<filter id="filter1_d_24_48" x="420.917" y="236.821" width="35.4167" height="76.3574" filterUnits="userSpaceOnUse" color-interpolation-filters="sRGB">
<feFlood flood-opacity="0" result="BackgroundImageFix"/>
<feColorMatrix in="SourceAlpha" type="matrix" values="0 0 0 0 0 0 0 0 0 0 0 0 0 0 0 0 0 0 127 0" result="hardAlpha"/>
<feOffset/>
<feGaussianBlur stdDeviation="4.16667"/>
<feColorMatrix type="matrix" values="0 0 0 0 0 0 0 0 0 0 0 0 0 0 0 0 0 0 0.25 0"/>
<feBlend mode="overlay" in2="BackgroundImageFix" result="effect1_dropShadow_24_48"/>
<feBlend mode="normal" in="SourceGraphic" in2="effect1_dropShadow_24_48" result="shape"/>
</filter>
<linearGradient id="paint0_linear_24_48" x1="417.963" y1="245.155" x2="417.963" y2="304.846" gradientUnits="userSpaceOnUse">
<stop stop-color="white"/>
<stop offset="1" stop-color="white" stop-opacity="0"/>
</linearGradient>
<linearGradient id="paint1_linear_24_48" x1="198.786" y1="250.394" x2="228.563" y2="279.756" gradientUnits="userSpaceOnUse">
<stop stop-color="#387EB8"/>
<stop offset="1" stop-color="#366994"/>
</linearGradient>
<linearGradient id="paint2_linear_24_48" x1="216.991" y1="269.325" x2="248.962" y2="299.428" gradientUnits="userSpaceOnUse">
<stop stop-color="#FFE052"/>
<stop offset="1" stop-color="#FFC331"/>
</linearGradient>
<clipPath id="clip0_24_48">
<rect width="54.1935" height="60" fill="white" transform="translate(296 225)"/>
</clipPath>
<clipPath id="clip1_24_48">
<rect width="60" height="60" fill="white" transform="translate(388 245)"/>
</clipPath>
<clipPath id="clip2_24_48">
<rect width="60" height="60" fill="white" transform="translate(90 225)"/>
</clipPath>
</defs>
</svg>
